<svg width="52" height="20" viewBox="0 0 52 20" fill="none" xmlns="http://www.w3.org/2000/svg">
<path d="M12.0475 7.27893C11.7567 7.11276 11.3828 7.11276 11.0504 7.27893L8.72404 8.64985L7.1454 9.52226L4.86053 10.8932C4.56973 11.0593 4.19585 11.0593 3.8635 10.8932L2.07715 9.81306C1.78635 9.64688 1.57863 9.31454 1.57863 8.94065V6.8635C1.57863 6.53116 1.74481 6.19881 2.07715 5.9911L3.8635 4.95252C4.1543 4.78635 4.52819 4.78635 4.86053 4.95252L6.64688 6.03264C6.93769 6.19881 7.1454 6.53116 7.1454 6.90504V8.27596L8.72404 7.36202V5.94955C8.72404 5.61721 8.55786 5.28487 8.22552 5.07715L4.90208 3.12463C4.61128 2.95846 4.23739 2.95846 3.90504 3.12463L0.498516 5.11869C0.166172 5.28487 0 5.61721 0 5.94955V9.8546C0 10.1869 0.166172 10.5193 0.498516 10.727L3.8635 12.6795C4.1543 12.8457 4.52819 12.8457 4.86053 12.6795L7.1454 11.3501L8.72404 10.4362L11.0089 9.10682C11.2997 8.94065 11.6736 8.94065 12.0059 9.10682L13.7923 10.1454C14.0831 10.3116 14.2908 10.6439 14.2908 11.0178V13.095C14.2908 13.4273 14.1246 13.7596 13.7923 13.9674L12.0475 15.0059C11.7567 15.1721 11.3828 15.1721 11.0504 15.0059L9.26409 13.9674C8.97329 13.8012 8.76558 13.4688 8.76558 13.095V11.7656L7.18694 12.6795V14.0504C7.18694 14.3828 7.35312 14.7151 7.68546 14.9228L11.0504 16.8754C11.3412 17.0415 11.7151 17.0415 12.0475 16.8754L15.4125 14.9228C15.7033 14.7567 15.911 14.4243 15.911 14.0504V10.1039C15.911 9.77151 15.7448 9.43917 15.4125 9.23145L12.0475 7.27893Z" fill="#8247E5"/>
<path d="M23.0305 16H30.6895V14.4943H25.4509V14.4091L27.7634 11.9886C29.8941 9.83523 30.502 8.80682 30.502 7.50568C30.502 5.63636 28.9793 4.20455 26.7861 4.20455C24.61 4.20455 23.0191 5.61364 23.0191 7.73864H24.6952C24.6895 6.48864 25.4964 5.67045 26.752 5.67045C27.9339 5.67045 28.8316 6.39773 28.8316 7.55682C28.8316 8.58523 28.218 9.32386 26.968 10.6477L23.0305 14.7273V16ZM32.3486 13.7273H37.8657V16H39.5418V13.7273H41.0816V12.2386H39.5418V4.36364H37.377L32.3486 12.3068V13.7273ZM37.877 12.2386H34.1895V12.1477L37.7861 6.45455H37.877V12.2386ZM46.9026 16.1591C49.2435 16.1591 50.914 14.5057 50.9083 12.2386C50.914 9.98864 49.3458 8.35227 47.2265 8.35227C46.3628 8.35227 45.5617 8.68182 45.1072 9.125H45.039L45.4083 5.86932H50.3458V4.36364H43.9481L43.2947 10.2273L44.9026 10.4659C45.3401 10.0739 46.1242 9.80682 46.8287 9.80682C48.2094 9.81818 49.2094 10.8523 49.2094 12.2727C49.2094 13.6705 48.2378 14.6818 46.9026 14.6818C45.7776 14.6818 44.8856 13.9659 44.7947 12.9659H43.0901C43.1583 14.8182 44.7662 16.1591 46.9026 16.1591Z" fill="#23262F"/>
</svg>
